<?xml version="1.0" encoding="UTF-8"?>
<svg xmlns="http://www.w3.org/2000/svg" xmlns:xlink="http://www.w3.org/1999/xlink" width="20px" height="20px" viewBox="0 0 20 20" version="1.1">
<g id="surface1">
<path style=" stroke:none;fill-rule:nonzero;fill:rgb(84.705882%,84.705882%,85.490196%);fill-opacity:1;" d="M 10 0 C 4.476562 0 0 4.476562 0 10 C 0 15.523438 4.476562 20 10 20 C 15.523438 20 20 15.523438 20 10 C 20 4.476562 15.523438 0 10 0 Z M 10 13.15625 C 8.257812 13.15625 6.84375 11.742188 6.84375 10 C 6.84375 8.257812 8.257812 6.84375 10 6.84375 C 11.742188 6.84375 13.15625 8.257812 13.15625 10 C 13.15625 11.742188 11.742188 13.15625 10 13.15625 Z M 10 13.15625 "/>
<path style=" stroke:none;fill-rule:nonzero;fill:rgb(83.137255%,71.372549%,90.196078%);fill-opacity:1;" d="M 11.050781 7.367188 L 19.648438 7.367188 C 18.949219 4.792969 17.246094 2.632812 14.984375 1.328125 L 8.949219 7.367188 Z M 11.050781 7.367188 "/>
<path style=" stroke:none;fill-rule:nonzero;fill:rgb(92.156863%,68.627451%,81.960784%);fill-opacity:1;" d="M 8.949219 7.367188 L 14.984375 1.328125 C 13.519531 0.484375 11.816406 0 10 0 C 9.089844 0 8.207031 0.121094 7.367188 0.351562 L 7.367188 8.949219 Z M 8.949219 7.367188 "/>
<path style=" stroke:none;fill-rule:nonzero;fill:rgb(87.843137%,44.313725%,53.333333%);fill-opacity:1;" d="M 7.367188 8.949219 L 7.367188 0.351562 C 4.792969 1.050781 2.632812 2.753906 1.328125 5.015625 L 7.367188 11.050781 Z M 7.367188 8.949219 "/>
<path style=" stroke:none;fill-rule:nonzero;fill:rgb(84.705882%,84.705882%,85.490196%);fill-opacity:1;" d="M 7.367188 8.949219 L 8.949219 7.367188 L 11.050781 7.367188 L 8.949219 7.367188 Z M 7.367188 8.949219 "/>
<path style=" stroke:none;fill-rule:nonzero;fill:rgb(84.705882%,84.705882%,85.490196%);fill-opacity:1;" d="M 8.949219 12.632812 L 7.367188 11.050781 L 8.949219 12.632812 L 11.050781 12.632812 L 12.632812 11.050781 L 11.050781 12.632812 Z M 8.949219 12.632812 "/>
<path style=" stroke:none;fill-rule:nonzero;fill:rgb(70.588235%,84.705882%,94.509804%);fill-opacity:1;" d="M 19.648438 7.367188 L 11.050781 7.367188 L 11.089844 7.367188 L 12.632812 8.949219 L 18.671875 14.984375 C 19.515625 13.519531 20 11.816406 20 10 C 20 9.089844 19.878906 8.207031 19.648438 7.367188 Z M 19.648438 7.367188 "/>
<path style=" stroke:none;fill-rule:nonzero;fill:rgb(67.45098%,100%,95.686275%);fill-opacity:1;" d="M 12.632812 11.050781 L 12.632812 19.648438 C 15.207031 18.949219 17.367188 17.246094 18.671875 14.984375 L 12.632812 8.949219 Z M 12.632812 11.050781 "/>
<path style=" stroke:none;fill-rule:nonzero;fill:rgb(58.431373%,83.529412%,65.490196%);fill-opacity:1;" d="M 11.050781 12.632812 L 5.015625 18.671875 C 6.480469 19.515625 8.183594 20 10 20 C 10.910156 20 11.792969 19.878906 12.632812 19.648438 L 12.632812 11.050781 Z M 11.050781 12.632812 "/>
<path style=" stroke:none;fill-rule:nonzero;fill:rgb(97.254902%,91.372549%,60.784314%);fill-opacity:1;" d="M 8.949219 12.632812 L 0.351562 12.632812 C 1.050781 15.207031 2.753906 17.367188 5.015625 18.671875 L 11.050781 12.632812 Z M 8.949219 12.632812 "/>
<path style=" stroke:none;fill-rule:nonzero;fill:rgb(93.72549%,76.078431%,48.235294%);fill-opacity:1;" d="M 7.367188 11.050781 L 1.328125 5.015625 C 0.484375 6.480469 0 8.183594 0 10 C 0 10.910156 0.121094 11.792969 0.351562 12.632812 L 8.949219 12.632812 Z M 7.367188 11.050781 "/>
<path style=" stroke:none;fill-rule:nonzero;fill:rgb(84.705882%,84.705882%,85.490196%);fill-opacity:1;" d="M 11.089844 7.367188 L 11.050781 7.367188 L 12.632812 8.949219 Z M 11.089844 7.367188 "/>
<path style=" stroke:none;fill-rule:nonzero;fill:rgb(71.372549%,50.588235%,83.529412%);fill-opacity:1;" d="M 19.648438 7.367188 C 18.949219 4.792969 17.246094 2.632812 14.984375 1.328125 L 10 6.316406 L 10 7.367188 Z M 19.648438 7.367188 "/>
<path style=" stroke:none;fill-rule:nonzero;fill:rgb(89.803922%,57.254902%,74.901961%);fill-opacity:1;" d="M 14.984375 1.328125 C 13.519531 0.484375 11.816406 0 10 0 L 10 6.316406 Z M 14.984375 1.328125 "/>
<path style=" stroke:none;fill-rule:nonzero;fill:rgb(50.196078%,79.607843%,57.647059%);fill-opacity:1;" d="M 10 13.683594 L 10 20 C 10.910156 20 11.792969 19.878906 12.632812 19.648438 L 12.632812 11.050781 Z M 10 13.683594 "/>
<path style=" stroke:none;fill-rule:nonzero;fill:rgb(96.470588%,88.627451%,49.019608%);fill-opacity:1;" d="M 11.050781 12.632812 L 10 12.632812 L 10 13.683594 Z M 11.050781 12.632812 "/>
</g>
</svg>
